<?xml version="1.0" encoding="utf-8"?>
<!-- Generator: Adobe Illustrator 23.0.0, SVG Export Plug-In . SVG Version: 6.00 Build 0)  -->
<svg version="1.0" id="Layer_1" xmlns="http://www.w3.org/2000/svg" xmlns:xlink="http://www.w3.org/1999/xlink" x="0px" y="0px"
	 viewBox="0 0 375 211" enable-background="new 0 0 375 211" xml:space="preserve">
<g>
	<g id="Enmascarar_grupo_4" transform="translate(0 -456)">
		<g id="bg">
			<path fill="#F15E52" d="M375,468.9V667H228.3l-16.9-13.8l-3.9-3.2l-18.3-15L168,617.6l-33.5-27.4l-3.3-2.7l0,0L128,585
				c0,0,1.6-1.3,4.7-3.5c1.6-1.2,3.6-2.6,6-4.3c1.7-1.2,3.6-2.5,5.7-4c21-14.4,60.8-39.9,112.4-63.4c5.5-2.5,11-4.9,16.7-7.4
				C304.2,489.4,338.5,477.4,375,468.9z"/>
			<path fill="#F37267" d="M375,478.9V667H216.1l-8.6-7l-3.9-3.2L128,595c0,0,2.2-1.7,6.4-4.8c1.2-0.9,2.6-1.9,4.2-3l0,0
				c1.8-1.3,3.8-2.6,5.9-4.1c3.9-2.7,8.3-5.7,13.4-9l0,0c24.7-16.1,63.3-39,110.7-59.6c5.3-2.3,10.8-4.6,16.3-6.8
				C312.7,496.5,343,486.3,375,478.9z"/>
			<path fill="#F68B42" d="M375,562.7V667H58.3l-28.5-43.6l-0.6-0.9L25,616c0,0,2.3-3.3,6.5-9l0,0l0,0c10-13.1,30.6-38.5,57.9-62.6
				c2-1.8,4-3.5,6.1-5.2c41.6-35.1,97-65,153-46.2c8.4,2.8,16.7,6,24.8,9.5c3.9,1.7,7.8,3.4,11.6,5.2
				C318.3,523.2,349,543.2,375,562.7z"/>
			<path fill="#F79755" d="M375,576.7V667H49.2L25,630c0,0,1.7-2.4,4.8-6.6c0.5-0.7,1.1-1.5,1.7-2.3l0,0l0,0
				c4.6-6.1,11.7-15,20.6-25.1l0,0c12.1-13.7,27.7-29.8,45.8-44.8c2-1.7,4.1-3.3,6.2-5c40.5-31.9,92.2-56.8,144.4-39.2
				c2.7,0.9,5.4,1.9,8.1,2.8c4,1.5,8,3,12,4.7C308.3,530.7,344.8,554,375,576.7z"/>
			<path fill="#F15E52" d="M222,625l-5.8,10l-8.7,15l-3.9,6.8l-5.9,10.2H0V482.5c0.5,0.2,0.9,0.4,1.4,0.5
				c34.3,13.2,66.6,34.3,94.2,56.2c2.9,2.3,5.8,4.7,8.6,7c11.1,9.2,21.3,18.4,30.4,27.1c1.4,1.3,2.7,2.6,4,3.9c2,2,4,3.9,5.9,5.9
				c1.5,1.5,2.9,2.9,4.3,4.3c21.3,21.7,34,37.6,34,37.6H222z"/>
			<path fill="#F37267" d="M222,635l-10.6,18.2l-3.9,6.8l-4.1,7H0V492.5c0.5,0.2,0.9,0.4,1.4,0.5c31.8,12.2,61.9,31.3,88.1,51.5
				c2.9,2.2,5.7,4.5,8.5,6.7c9.5,7.7,18.4,15.4,26.6,22.9c2.8,2.5,5.4,5,8,7.5c2,1.9,4,3.8,6,5.7l0,0c12,11.6,21.9,22.2,29.3,30.4
				c9.6,10.7,14.9,17.4,14.9,17.4H222V635z"/>
			<path fill="#FCD6BD" d="M358.5,667H0v-39c9.9-7.3,20.4-14.4,31.5-20.9l0,0l0,0c6.7-3.9,13.6-7.6,20.6-11.1l0,0
				c22.7-11.1,47.2-19.3,72.5-21.9c3.3-0.3,6.6-0.6,10-0.7c3.2-0.1,6.5-0.2,9.7-0.1c4.5,0.1,9.1,0.4,13.6,0.9l0,0
				c8.3,0.9,16.7,2.5,25.1,4.9C251.4,598.6,313.9,635.6,358.5,667z"/>
			<path fill="#F3D78B" d="M337.9,667H0v-25c9.2-6.8,18.9-13.4,29.2-19.5c0.8-0.5,1.6-0.9,2.3-1.4l0,0l0,0
				c30-17.6,64-31.3,99.5-33.5l0,0c2.5-0.2,5-0.3,7.5-0.3l0,0c3.4-0.1,6.8,0,10.2,0.2c11.3,0.5,22.8,2.3,34.3,5.6
				C241.5,609.7,295.6,639.2,337.9,667z"/>
		</g>
	</g>
</g>
</svg>
